HIERARCHY
ROOT Hips
{
	OFFSET 0.000000 83.214638 0.000000
	CHANNELS 6 Xposition Yposition Zposition Xrotation Yrotation Zrotation
	JOINT Pelvis
	{
		OFFSET 0.000000 0.000000 0.000000
		CHANNELS 3 Xrotation Yrotation Zrotation
		JOINT LeftUpLeg
		{
			OFFSET 8.479700 -4.795502 -0.379100
			CHANNELS 3 Xrotation Yrotation Zrotation
			JOINT LeftLeg
			{
				OFFSET 0.024144 -32.555107 0.112900
				CHANNELS 3 Xrotation Yrotation Zrotation
				JOINT LeftFoot
				{
					OFFSET -0.024144 -32.638630 -3.012600
					CHANNELS 3 Xrotation Yrotation Zrotation
					JOINT LeftToeBase
					{
						OFFSET 0.970200 -13.225400 11.864200
						CHANNELS 3 Xrotation Yrotation Zrotation
						End Site
						{
							OFFSET 0.000000 12.319262 0.000000
						}
					}
					JOINT LFootTongue
					{
						OFFSET 1.142400 -1.059800 6.665200
						CHANNELS 3 Xrotation Yrotation Zrotation
						End Site
						{
							OFFSET 0.000000 12.319262 0.000000
						}
					}
				}
				JOINT LeftPantLeg
				{
					OFFSET 0.918482 -16.533964 -2.284700
					CHANNELS 3 Xrotation Yrotation Zrotation
					End Site
					{
						OFFSET 0.350399 24.744368 0.000000
					}
				}
			}
		}
		JOINT RightUpLeg
		{
			OFFSET -8.479700 -4.795502 -0.379100
			CHANNELS 3 Xrotation Yrotation Zrotation
			JOINT RightLeg
			{
				OFFSET -0.023144 -32.555092 0.112900
				CHANNELS 3 Xrotation Yrotation Zrotation
				JOINT RightFoot
				{
					OFFSET 0.023144 -32.638641 -3.012700
					CHANNELS 3 Xrotation Yrotation Zrotation
					JOINT RightToeBase
					{
						OFFSET -0.970200 -13.225400 11.864200
						CHANNELS 3 Xrotation Yrotation Zrotation
						End Site
						{
							OFFSET 0.000000 12.319244 0.000000
						}
					}
					JOINT RFootTongue
					{
						OFFSET -1.142200 -1.059800 6.665200
						CHANNELS 3 Xrotation Yrotation Zrotation
						End Site
						{
							OFFSET 0.000000 12.319243 0.000000
						}
					}
				}
				JOINT RightPantLeg
				{
					OFFSET -0.919482 -16.533978 -2.284800
					CHANNELS 3 Xrotation Yrotation Zrotation
					End Site
					{
						OFFSET -0.350400 24.744419 0.000000
					}
				}
			}
		}
	}
	JOINT Spine
	{
		OFFSET 0.000000 7.722000 1.166200
		CHANNELS 3 Xrotation Yrotation Zrotation
		JOINT Spine1
		{
			OFFSET 0.000000 12.024101 0.248800
			CHANNELS 3 Xrotation Yrotation Zrotation
			JOINT Spine2
			{
				OFFSET 0.000000 11.502998 -0.491200
				CHANNELS 3 Xrotation Yrotation Zrotation
				JOINT Neck
				{
					OFFSET 0.000000 18.430702 -3.123100
					CHANNELS 3 Xrotation Yrotation Zrotation
					JOINT Head
					{
						OFFSET 0.000000 9.051102 1.034000
						CHANNELS 3 Xrotation Yrotation Zrotation
						JOINT HairB
						{
							OFFSET 0.208400 24.786102 24.822300
							CHANNELS 3 Xrotation Yrotation Zrotation
							End Site
							{
								OFFSET 0.000000 32.263779 0.000000
							}
						}
						JOINT HairA
						{
							OFFSET -7.081100 24.428299 23.196600
							CHANNELS 3 Xrotation Yrotation Zrotation
							End Site
							{
								OFFSET 0.000000 32.263779 0.000000
							}
						}
						JOINT Hat
						{
							OFFSET 16.728800 15.048294 -15.439601
							CHANNELS 3 Xrotation Yrotation Zrotation
							End Site
							{
								OFFSET 0.000000 32.263779 0.000000
							}
						}
					}
				}
				JOINT LeftShoulder
				{
					OFFSET 6.197800 13.665199 -4.064700
					CHANNELS 3 Xrotation Yrotation Zrotation
					JOINT LeftArm
					{
						OFFSET 7.778100 -0.187103 -1.709300
						CHANNELS 3 Xrotation Yrotation Zrotation
						JOINT LeftForeArm
						{
							OFFSET 22.049376 0.000000 0.000000
							CHANNELS 3 Xrotation Yrotation Zrotation
							JOINT LeftHand
							{
								OFFSET 23.009392 0.000000 0.000000
								CHANNELS 3 Xrotation Yrotation Zrotation
								JOINT LeftHandThumb1
								{
									OFFSET 3.507191 -2.063065 3.133727
									CHANNELS 3 Xrotation Yrotation Zrotation
									JOINT LeftHandThumb2
									{
										OFFSET 3.101337 -1.790558 1.790558
										CHANNELS 3 Xrotation Yrotation Zrotation
										JOINT LeftHandThumb3
										{
											OFFSET 3.058640 -1.765907 1.765906
											CHANNELS 3 Xrotation Yrotation Zrotation
											End Site
											{
												OFFSET -0.415260 3.926476 -0.049563
											}
										}
									}
								}
								JOINT LeftHandIndex1
								{
									OFFSET 11.334419 -0.901459 3.706815
									CHANNELS 3 Xrotation Yrotation Zrotation
									JOINT LeftHandIndex2
									{
										OFFSET 3.283112 0.000000 0.000000
										CHANNELS 3 Xrotation Yrotation Zrotation
										JOINT LeftHandIndex3
										{
											OFFSET 3.323853 0.000000 0.000000
											CHANNELS 3 Xrotation Yrotation Zrotation
											End Site
											{
												OFFSET -1.135597 3.097809 0.402452
											}
										}
									}
								}
								JOINT LeftHandMiddle1
								{
									OFFSET 11.335861 0.000000 0.000000
									CHANNELS 3 Xrotation Yrotation Zrotation
									JOINT LeftHandMiddle2
									{
										OFFSET 3.410492 0.000000 0.000000
										CHANNELS 3 Xrotation Yrotation Zrotation
										JOINT LeftHandMiddle3
										{
											OFFSET 3.312172 0.000000 0.000000
											CHANNELS 3 Xrotation Yrotation Zrotation
											End Site
											{
												OFFSET -1.150200 3.080154 0.400270
											}
										}
									}
								}
								JOINT LeftHandRing1
								{
									OFFSET 11.514786 -0.013176 -3.003090
									CHANNELS 3 Xrotation Yrotation Zrotation
									JOINT LeftHandRing2
									{
										OFFSET 3.053307 0.000000 0.000000
										CHANNELS 3 Xrotation Yrotation Zrotation
										JOINT LeftHandRing3
										{
											OFFSET 3.295807 0.000000 0.000000
											CHANNELS 3 Xrotation Yrotation Zrotation
											End Site
											{
												OFFSET -1.281006 3.013344 0.375733
											}
										}
									}
								}
								JOINT LeftHandPinky1
								{
									OFFSET 10.518692 -0.960396 -5.730441
									CHANNELS 3 Xrotation Yrotation Zrotation
									JOINT LeftHandPinky2
									{
										OFFSET 2.861649 0.000000 0.000000
										CHANNELS 3 Xrotation Yrotation Zrotation
										JOINT LeftHandPinky3
										{
											OFFSET 2.863380 0.000000 0.000000
											CHANNELS 3 Xrotation Yrotation Zrotation
											End Site
											{
												OFFSET -0.843597 2.711159 0.369971
											}
										}
									}
								}
							}
							JOINT LSleeve
							{
								OFFSET 6.676277 -0.344902 -1.011730
								CHANNELS 3 Xrotation Yrotation Zrotation
								End Site
								{
									OFFSET 0.000000 14.885353 0.000000
								}
							}
						}
					}
				}
				JOINT RightShoulder
				{
					OFFSET -6.197800 13.665199 -4.064700
					CHANNELS 3 Xrotation Yrotation Zrotation
					JOINT RightArm
					{
						OFFSET -7.778100 -0.187103 -1.709300
						CHANNELS 3 Xrotation Yrotation Zrotation
						JOINT RightForeArm
						{
							OFFSET -22.049376 0.000000 0.000000
							CHANNELS 3 Xrotation Yrotation Zrotation
							JOINT RightHand
							{
								OFFSET -23.009392 0.000000 0.000000
								CHANNELS 3 Xrotation Yrotation Zrotation
								JOINT RightHandThumb1
								{
									OFFSET -3.507191 -2.063065 3.133727
									CHANNELS 3 Xrotation Yrotation Zrotation
									JOINT RightHandThumb2
									{
										OFFSET -3.101337 -1.790558 1.790558
										CHANNELS 3 Xrotation Yrotation Zrotation
										JOINT RightHandThumb3
										{
											OFFSET -3.058640 -1.765907 1.765906
											CHANNELS 3 Xrotation Yrotation Zrotation
											End Site
											{
												OFFSET 0.415260 3.926476 -0.049563
											}
										}
									}
								}
								JOINT RightHandIndex1
								{
									OFFSET -11.334419 -0.901459 3.706815
									CHANNELS 3 Xrotation Yrotation Zrotation
									JOINT RightHandIndex2
									{
										OFFSET -3.283112 0.000000 0.000000
										CHANNELS 3 Xrotation Yrotation Zrotation
										JOINT RightHandIndex3
										{
											OFFSET -3.323853 0.000000 0.000000
											CHANNELS 3 Xrotation Yrotation Zrotation
											End Site
											{
												OFFSET 1.135597 3.097809 0.402452
											}
										}
									}
								}
								JOINT RightHandMiddle1
								{
									OFFSET -11.335861 0.000000 0.000000
									CHANNELS 3 Xrotation Yrotation Zrotation
									JOINT RightHandMiddle2
									{
										OFFSET -3.410492 0.000000 0.000000
										CHANNELS 3 Xrotation Yrotation Zrotation
										JOINT RightHandMiddle3
										{
											OFFSET -3.312172 0.000000 0.000000
											CHANNELS 3 Xrotation Yrotation Zrotation
											End Site
											{
												OFFSET 1.150200 3.080154 0.400270
											}
										}
									}
								}
								JOINT RightHandRing1
								{
									OFFSET -11.514786 -0.013176 -3.003090
									CHANNELS 3 Xrotation Yrotation Zrotation
									JOINT RightHandRing2
									{
										OFFSET -3.053307 0.000000 0.000000
										CHANNELS 3 Xrotation Yrotation Zrotation
										JOINT RightHandRing3
										{
											OFFSET -3.295807 0.000000 0.000000
											CHANNELS 3 Xrotation Yrotation Zrotation
											End Site
											{
												OFFSET 1.281006 3.013344 0.375733
											}
										}
									}
								}
								JOINT RightHandPinky1
								{
									OFFSET -10.518692 -0.960396 -5.730441
									CHANNELS 3 Xrotation Yrotation Zrotation
									JOINT RightHandPinky2
									{
										OFFSET -2.861649 0.000000 0.000000
										CHANNELS 3 Xrotation Yrotation Zrotation
										JOINT RightHandPinky3
										{
											OFFSET -2.863380 0.000000 0.000000
											CHANNELS 3 Xrotation Yrotation Zrotation
											End Site
											{
												OFFSET 0.843597 2.711159 0.369971
											}
										}
									}
								}
							}
							JOINT RSleeve
							{
								OFFSET -6.676277 -0.344902 -1.011730
								CHANNELS 3 Xrotation Yrotation Zrotation
								End Site
								{
									OFFSET 0.000000 14.885353 0.000000
								}
							}
						}
					}
				}
				JOINT Backpack
				{
					OFFSET 0.000000 -2.471497 36.677502
					CHANNELS 3 Xrotation Yrotation Zrotation
					End Site
					{
						OFFSET 0.000000 20.427315 0.000000
					}
				}
				JOINT Hood
				{
					OFFSET 0.000000 18.754097 -10.431000
					CHANNELS 3 Xrotation Yrotation Zrotation
					JOINT Hood1
					{
						OFFSET 0.000000 -5.011002 -7.685901
						CHANNELS 3 Xrotation Yrotation Zrotation
						End Site
						{
							OFFSET 0.000000 9.175140 0.000000
						}
					}
				}
				JOINT LHoodieString
				{
					OFFSET 5.250500 16.397697 3.089900
					CHANNELS 3 Xrotation Yrotation Zrotation
					JOINT LHoodieString1
					{
						OFFSET 0.257700 -6.364304 3.694600
						CHANNELS 3 Xrotation Yrotation Zrotation
						JOINT LHoodieString2
						{
							OFFSET 0.000000 -9.643799 2.679100
							CHANNELS 3 Xrotation Yrotation Zrotation
							End Site
							{
								OFFSET 0.000000 10.009018 0.000000
							}
						}
					}
				}
				JOINT RHoodieString
				{
					OFFSET -5.250500 16.397697 3.089900
					CHANNELS 3 Xrotation Yrotation Zrotation
					JOINT RHoodieString1
					{
						OFFSET -0.257700 -6.364304 3.694600
						CHANNELS 3 Xrotation Yrotation Zrotation
						JOINT RHoodieString2
						{
							OFFSET 0.000000 -9.643799 2.679100
							CHANNELS 3 Xrotation Yrotation Zrotation
							End Site
							{
								OFFSET 0.000000 10.009018 0.000000
							}
						}
					}
				}
			}
			JOINT LBackpack_Strap
			{
				OFFSET 15.223200 -7.719803 -6.610900
				CHANNELS 3 Xrotation Yrotation Zrotation
				End Site
				{
					OFFSET 0.000000 16.040596 0.000000
				}
			}
			JOINT RBackpack_Strap
			{
				OFFSET -15.223000 -7.719803 -6.610900
				CHANNELS 3 Xrotation Yrotation Zrotation
				End Site
				{
					OFFSET 0.000000 16.040596 0.000000
				}
			}
		}
	}
	JOINT BoyFacialAnim_Joint
	{
		OFFSET 1.000000 -82.208099 -1.550900
		CHANNELS 3 Xrotation Yrotation Zrotation
		End Site
		{
			OFFSET 0.000000 30.012791 0.000000
		}
	}
}
MOTION
Frames: 4
Frame Time: 0.016667
-0.698877 78.018028 35.172089 10.279957 -5.190718 0.075155 -0.000000 -0.000000 0.000000 -31.618711 5.861108 15.000419 36.057829 8.662196 0.403966 -13.568521 -3.632256 -13.329540 -0.000000 0.000000 -0.000000 -0.000000 0.000000 -0.000000 0.000002 -0.000001 -0.000000 -35.530388 -2.733217 -5.206419 37.803014 1.148725 -4.286232 -11.362697 -11.776981 9.107381 0.000000 -0.000001 0.000000 0.000000 -0.000001 0.000000 -0.000000 0.000000 0.000000 5.319875 0.142619 -1.218323 2.188028 -0.566218 -0.158979 0.272737 -0.972616 0.898067 12.585921 -0.308785 2.188553 -30.323021 0.842206 -5.312839 0.000000 0.000000 -0.000000 0.000000 0.000000 -0.000000 0.000000 0.000000 -0.000000 5.876925 -7.979695 20.002224 -34.254669 -16.965584 -14.997632 -0.000001 -124.447522 0.000000 -1.398395 -13.673591 39.579512 28.620023 -24.676656 7.683743 13.196526 30.099387 -41.312044 0.000002 0.000002 0.000001 3.052572 -0.236009 -15.996344 0.004172 0.221372 -2.160736 -0.000001 0.000000 -0.000000 0.872747 5.500596 -21.877306 0.087925 1.012251 -9.928498 -0.000001 -0.000001 -0.000002 1.472008 7.478237 -18.525766 0.300204 1.853016 -18.403443 -0.000001 0.000001 -0.000004 -1.697488 15.557745 -19.134807 0.370824 2.052995 -20.475321 0.000001 0.000002 -0.000000 0.000000 0.000001 0.000000 -1.569642 -8.377661 -14.965269 -29.516113 36.059922 26.253335 -0.000000 121.356383 0.000000 1.490556 12.183656 -43.921183 27.217080 26.328180 -7.221388 12.620669 -31.646415 39.727734 0.000001 0.000001 -0.000002 3.344717 0.259449 17.143655 0.003480 -0.180153 2.211969 -0.000001 0.000001 0.000004 0.921707 -5.175108 25.205473 0.070805 -0.809849 9.992545 -0.000000 -0.000001 -0.000002 1.333970 -6.500119 20.818253 0.269512 -1.562845 19.567773 -0.000000 0.000000 0.000000 -2.138990 -15.198732 21.741689 0.300652 -1.647799 20.679359 -0.000000 -0.000001 0.000000 0.000000 0.000001 -0.000000 0.000001 -0.000000 -0.000000 0.000001 -0.000000 -0.000000 0.000001 -0.000000 -0.000000 0.000001 -0.000000 -0.000000 0.000001 -0.000000 0.000000 0.000001 0.000000 0.000000 0.000001 -0.000000 -0.000000 0.000001 -0.000000 0.000000 0.000001 0.000000 0.000000 0.000002 0.000000 0.000000 0.000002 0.000000 0.000000 -0.000000 -0.000000 0.000000 
-0.744161 78.591805 35.515232 10.556043 -5.011429 0.076927 -0.000001 0.000000 -0.000000 -30.193463 6.277536 14.763433 33.072309 8.671735 0.400353 -12.369487 -3.817338 -13.132248 0.000000 -0.000000 0.000000 0.000000 -0.000000 0.000000 -0.000000 -0.000000 -0.000000 -34.064844 -2.858524 -5.119375 35.071228 0.933171 -4.265676 -10.356055 -11.701138 9.156654 -0.000000 -0.000001 -0.000000 -0.000000 -0.000001 -0.000000 0.000001 0.000001 0.000000 5.189668 0.137591 -1.198623 1.911444 -0.569145 -0.186931 -0.161185 -0.970424 0.868122 12.453095 -0.296589 2.274847 -29.759930 0.843136 -5.284014 -0.000000 -0.000000 0.000000 -0.000000 -0.000000 0.000000 -0.000000 -0.000000 0.000000 5.875347 -8.055281 20.055957 -34.142558 -16.790060 -15.375130 -0.000000 -124.460090 -0.000001 -2.606254 -13.888118 39.182538 28.761469 -24.766927 7.719524 13.199952 30.105152 -41.441244 0.000002 0.000001 0.000000 3.069568 -0.215143 -16.039878 0.003673 0.207616 -2.026395 -0.000001 0.000000 -0.000007 0.875029 5.503084 -21.943383 0.082609 0.981395 -9.622851 -0.000001 -0.000000 -0.000002 1.474915 7.486889 -18.524911 0.296680 1.842397 -18.294124 -0.000000 -0.000000 0.000001 -1.764769 15.538902 -19.028362 0.367412 2.043844 -20.379896 -0.000000 0.000001 0.000003 0.000000 0.000001 0.000000 -1.577467 -8.399917 -14.977690 -29.040807 36.106347 26.125870 -0.000000 121.325552 0.000000 0.621400 13.275595 -43.722428 27.195554 26.336453 -7.211339 12.611132 -31.646609 39.702404 0.000002 0.000001 0.000002 3.355502 0.248058 17.203459 0.003506 -0.180912 2.221362 -0.000001 -0.000002 -0.000002 0.928095 -5.183133 25.338438 0.071175 -0.811971 10.018983 -0.000000 0.000001 0.000002 1.330943 -6.479222 20.917190 0.270802 -1.566476 19.615171 -0.000000 0.000001 -0.000001 -2.120901 -15.198079 21.855212 0.301313 -1.649541 20.702209 0.000002 0.000000 -0.000001 -0.000000 0.000001 0.000000 0.000001 0.000000 -0.000000 0.000001 0.000000 -0.000000 0.000001 0.000000 -0.000000 0.000001 0.000000 -0.000000 0.000001 0.000000 0.000000 0.000001 0.000000 -0.000000 0.000001 0.000000 -0.000000 0.000001 0.000000 0.000000 0.000001 0.000000 -0.000000 0.000001 0.000000 0.000000 0.000001 0.000000 0.000000 -0.000001 0.000000 -0.000000 
-0.787415 79.104248 35.817482 10.795025 -4.820908 0.071527 0.000000 -0.000000 -0.000000 -28.822889 6.665761 14.535896 30.190918 8.679309 0.396417 -11.179526 -4.015820 -12.943751 -0.000000 -0.000001 0.000000 -0.000000 -0.000001 0.000000 -0.000001 0.000001 -0.000001 -32.667518 -2.975413 -5.034495 32.465074 0.709012 -4.245269 -9.370377 -11.625539 9.196108 -0.000000 -0.000001 0.000000 -0.000000 -0.000001 0.000000 0.000000 0.000001 0.000000 5.077613 0.133664 -1.173889 1.666089 -0.571977 -0.208916 -0.559321 -0.968292 0.843850 12.301279 -0.295255 2.357714 -29.149553 0.800224 -5.276034 0.000000 0.000000 0.000000 0.000000 0.000000 0.000000 0.000000 0.000000 0.000000 5.878848 -8.060530 20.101156 -33.982213 -16.856640 -15.686663 0.000000 -124.387594 0.000001 -3.851814 -13.938190 39.134074 28.792635 -24.793648 7.783929 13.167983 30.092963 -41.468927 -0.000000 -0.000003 -0.000003 3.081262 -0.191202 -16.120751 0.003529 0.203397 -1.985206 0.000000 -0.000001 -0.000002 0.878232 5.506986 -22.027394 0.078930 0.959450 -9.405678 -0.000000 -0.000001 0.000002 1.484623 7.508874 -18.559311 0.295690 1.839405 -18.263381 -0.000001 0.000001 -0.000000 -1.807149 15.526705 -18.984886 0.366255 2.040721 -20.347367 0.000000 0.000000 -0.000000 0.000000 0.000001 -0.000000 -1.587337 -8.450119 -14.986748 -28.633693 36.187719 26.024549 0.000000 121.147202 0.000001 -0.032550 14.261430 -43.465309 27.172992 26.344569 -7.200399 12.601733 -31.646917 39.677112 -0.000003 -0.000000 -0.000001 3.366420 0.236498 17.265615 0.003554 -0.182018 2.234976 -0.000000 -0.000000 0.000002 0.934615 -5.191300 25.473979 0.071600 -0.814366 10.048946 -0.000001 -0.000001 -0.000000 1.327873 -6.458150 21.018512 0.272225 -1.570446 19.667011 -0.000000 -0.000000 0.000000 -2.102255 -15.197528 21.971400 0.302126 -1.651701 20.730427 -0.000000 -0.000001 -0.000002 -0.000000 0.000002 0.000000 -0.000001 -0.000000 0.000000 -0.000001 -0.000000 0.000000 -0.000001 -0.000000 0.000000 -0.000001 -0.000000 0.000000 -0.000001 -0.000000 0.000000 -0.000001 0.000000 0.000000 -0.000001 -0.000000 0.000000 -0.000001 -0.000000 0.000000 -0.000001 0.000000 0.000000 0.000003 0.000000 0.000000 0.000003 0.000000 0.000000 0.000000 -0.000000 -0.000000 
-0.826907 79.548172 36.073769 10.969572 -4.631724 0.065478 0.000000 0.000000 -0.000000 -27.512601 7.026498 14.318295 27.486355 8.683889 0.392119 -10.035691 -4.217213 -12.767894 0.000000 0.000000 -0.000000 0.000000 0.000000 -0.000000 0.000000 0.000001 -0.000000 -31.355042 -3.084805 -4.963108 30.062408 0.497347 -4.224952 -8.441900 -11.552878 9.222251 0.000000 0.000001 -0.000000 0.000000 0.000001 -0.000000 0.000000 -0.000001 0.000000 4.985447 0.130446 -1.145368 1.454995 -0.575849 -0.227307 -0.918377 -0.967313 0.822786 12.149652 -0.303947 2.434268 -28.491239 0.716115 -5.283604 0.000000 -0.000001 -0.000000 0.000000 -0.000001 -0.000000 0.000000 -0.000001 -0.000000 5.881371 -7.946040 20.121319 -33.764384 -17.243361 -15.928114 0.000001 -124.230923 0.000000 -5.100330 -13.844757 39.465670 28.513004 -24.637879 7.851859 13.061383 30.072722 -41.232674 -0.000002 0.000001 0.000005 3.077367 -0.164139 -16.281204 0.004283 0.224187 -2.188236 -0.000002 -0.000000 -0.000004 0.883463 5.514451 -22.140975 0.079765 0.964481 -9.455453 0.000001 -0.000001 -0.000000 1.509859 7.560501 -18.676287 0.301350 1.856461 -18.438883 -0.000001 0.000001 -0.000000 -1.778042 15.533303 -19.108692 0.371053 2.053611 -20.481728 0.000001 0.000000 -0.000002 -0.000000 0.000001 0.000000 -1.601074 -8.534191 -15.002517 -28.345521 36.296885 26.002365 -0.000000 120.828833 0.000000 -0.558086 15.208075 -43.049094 27.151416 26.352589 -7.190634 12.592160 -31.647094 39.651772 -0.000003 -0.000002 -0.000002 3.377260 0.225131 17.325634 0.003582 -0.182824 2.244918 0.000000 0.000000 0.000005 0.941029 -5.199278 25.607127 0.071981 -0.816521 10.075867 -0.000000 -0.000000 0.000003 1.324667 -6.437255 21.117616 0.273542 -1.574123 19.714965 -0.000001 -0.000001 0.000000 -2.084202 -15.196768 22.085092 0.302798 -1.653470 20.753798 0.000000 0.000001 0.000002 0.000000 0.000002 0.000000 -0.000000 -0.000000 0.000000 -0.000000 -0.000000 0.000000 -0.000000 -0.000000 0.000000 -0.000000 -0.000000 0.000000 -0.000000 -0.000000 0.000000 -0.000000 -0.000000 0.000000 -0.000000 -0.000000 0.000000 -0.000000 -0.000000 0.000000 -0.000000 -0.000000 0.000000 -0.000000 0.000000 0.000000 -0.000000 0.000000 0.000000 0.000000 0.000000 -0.000000 
